HIERARCHY
ROOT Hips
{
  OFFSET 17.593 22.960 -248.794
  CHANNELS 6 Xposition Yposition Zposition Zrotation Xrotation Yrotation
  JOINT LeftUpLeg
  {
    OFFSET 7.871 -7.415 2.132
    CHANNELS 6 Xposition Yposition Zposition Zrotation Xrotation Yrotation
    JOINT LeftLeg
    {
      OFFSET -0.000 -48.341 0.000
      CHANNELS 6 Xposition Yposition Zposition Zrotation Xrotation Yrotation
      JOINT LeftFoot
      {
        OFFSET -0.000 -37.769 -0.000
        CHANNELS 6 Xposition Yposition Zposition Zrotation Xrotation Yrotation
        End Site
        {
          OFFSET 0.000 -10.265 5.926
        }
      }
    }
  }
  JOINT RightUpLeg
  {
    OFFSET -7.682 -7.573 1.968
    CHANNELS 6 Xposition Yposition Zposition Zrotation Xrotation Yrotation
    JOINT RightLeg
    {
      OFFSET 0.000 -49.172 0.000
      CHANNELS 6 Xposition Yposition Zposition Zrotation Xrotation Yrotation
      JOINT RightFoot
      {
        OFFSET -0.000 -41.311 -0.000
        CHANNELS 6 Xposition Yposition Zposition Zrotation Xrotation Yrotation
        End Site
        {
          OFFSET 0.000 -8.709 5.028
        }
      }
    }
  }
  JOINT Spine
  {
    OFFSET 0.000 5.985 -5.985
    CHANNELS 6 Xposition Yposition Zposition Zrotation Xrotation Yrotation
    JOINT LeftShoulder
    {
      OFFSET -0.000 37.329 0.000
      CHANNELS 6 Xposition Yposition Zposition Zrotation Xrotation Yrotation
      JOINT LeftArm
      {
        OFFSET 21.474 0.000 -0.000
        CHANNELS 6 Xposition Yposition Zposition Zrotation Xrotation Yrotation
        JOINT LeftForeArm
        {
          OFFSET 27.625 0.000 0.000
          CHANNELS 6 Xposition Yposition Zposition Zrotation Xrotation Yrotation
          JOINT LeftHand
          {
            OFFSET 25.987 0.000 -0.000
            CHANNELS 6 Xposition Yposition Zposition Zrotation Xrotation Yrotation
            JOINT LeftHandThumb1
            {
            OFFSET 4.970 -0.620 3.390
            CHANNELS 6 Xposition Yposition Zposition Zrotation Xrotation Yrotation
              JOINT LeftHandThumb2
              {
              OFFSET 2.150 -0.000 0.000
              CHANNELS 6 Xposition Yposition Zposition Zrotation Xrotation Yrotation
                JOINT LeftHandThumb3
                {
                OFFSET 2.200 -0.000 0.000
                CHANNELS 6 Xposition Yposition Zposition Zrotation Xrotation Yrotation
                  JOINT LeftHandThumb4
                  {
                  OFFSET 1.700 -0.000 0.000
                  CHANNELS 6 Xposition Yposition Zposition Zrotation Xrotation Yrotation
                  }
                }
              }
            }
            JOINT LeftHandIndex1
            {
            OFFSET 8.730 0.680 2.070
            CHANNELS 6 Xposition Yposition Zposition Zrotation Xrotation Yrotation
              JOINT LeftHandIndex2
              {
              OFFSET 2.670 -0.000 0.000
              CHANNELS 6 Xposition Yposition Zposition Zrotation Xrotation Yrotation
                JOINT LeftHandIndex3
                {
                OFFSET 2.130 -0.000 0.000
                CHANNELS 6 Xposition Yposition Zposition Zrotation Xrotation Yrotation
                  JOINT LeftHandIndex4
                  {
                  OFFSET 1.800 -0.000 0.000
                  CHANNELS 6 Xposition Yposition Zposition Zrotation Xrotation Yrotation
                  }
                }
              }
            }
            JOINT LeftHandMiddle1
            {
            OFFSET 9.220 0.670 0.550
            CHANNELS 6 Xposition Yposition Zposition Zrotation Xrotation Yrotation
              JOINT LeftHandMiddle2
              {
              OFFSET 2.660 -0.000 0.000
              CHANNELS 6 Xposition Yposition Zposition Zrotation Xrotation Yrotation
                JOINT LeftHandMiddle3
                {
                OFFSET 2.280 -0.000 0.000
                CHANNELS 6 Xposition Yposition Zposition Zrotation Xrotation Yrotation
                  JOINT LeftHandMiddle4
                  {
                  OFFSET 1.500 -0.000 0.000
                  CHANNELS 6 Xposition Yposition Zposition Zrotation Xrotation Yrotation
                  }
                }
              }
            }
            JOINT LeftHandRing1
            {
            OFFSET 9.250 0.670 -1.130
            CHANNELS 6 Xposition Yposition Zposition Zrotation Xrotation Yrotation
              JOINT LeftHandRing2
              {
              OFFSET 2.470 -0.000 0.000
              CHANNELS 6 Xposition Yposition Zposition Zrotation Xrotation Yrotation
                JOINT LeftHandRing3
                {
                OFFSET 2.210 -0.000 0.000
                CHANNELS 6 Xposition Yposition Zposition Zrotation Xrotation Yrotation
                  JOINT LeftHandRing4
                  {
                  OFFSET 1.800 -0.000 0.000
                  CHANNELS 6 Xposition Yposition Zposition Zrotation Xrotation Yrotation
                  }
                }
              }
            }
            JOINT LeftHandPinky1
            {
            OFFSET 9.350 0.660 -2.720
            CHANNELS 6 Xposition Yposition Zposition Zrotation Xrotation Yrotation
              JOINT LeftHandPinky2
              {
              OFFSET 1.630 -0.000 0.000
              CHANNELS 6 Xposition Yposition Zposition Zrotation Xrotation Yrotation
                JOINT LeftHandPinky3
                {
                OFFSET 1.710 -0.000 0.000
                CHANNELS 6 Xposition Yposition Zposition Zrotation Xrotation Yrotation
                  JOINT LeftHandPinky4
                  {
                  OFFSET 1.800 -0.000 0.000
                  CHANNELS 6 Xposition Yposition Zposition Zrotation Xrotation Yrotation
                  }
                }
              }
            }
          }
        }
      }
    }
    JOINT RightShoulder
    {
      OFFSET -0.000 37.329 0.000
      CHANNELS 6 Xposition Yposition Zposition Zrotation Xrotation Yrotation
      JOINT RightArm
      {
        OFFSET -21.057 0.000 -0.000
        CHANNELS 6 Xposition Yposition Zposition Zrotation Xrotation Yrotation
        JOINT RightForeArm
        {
          OFFSET -28.829 0.000 0.000
          CHANNELS 6 Xposition Yposition Zposition Zrotation Xrotation Yrotation
          JOINT RightHand
          {
            OFFSET -24.681 0.000 -0.000
            CHANNELS 6 Xposition Yposition Zposition Zrotation Xrotation Yrotation
            JOINT RightHandThumb1
            {
            OFFSET -4.970 -0.620 3.390
            CHANNELS 6 Xposition Yposition Zposition Zrotation Xrotation Yrotation
              JOINT RightHandThumb2
              {
              OFFSET -2.150 0.000 0.000
              CHANNELS 6 Xposition Yposition Zposition Zrotation Xrotation Yrotation
                JOINT RightHandThumb3
                {
                OFFSET -2.200 0.000 0.000
                CHANNELS 6 Xposition Yposition Zposition Zrotation Xrotation Yrotation
                  JOINT RightHandThumb4
                  {
                  OFFSET -1.700 0.000 0.000
                  CHANNELS 6 Xposition Yposition Zposition Zrotation Xrotation Yrotation
                  }
                }
              }
            }
            JOINT RightHandIndex1
            {
            OFFSET -8.730 0.680 2.070
            CHANNELS 6 Xposition Yposition Zposition Zrotation Xrotation Yrotation
              JOINT RightHandIndex2
              {
              OFFSET -2.670 0.000 0.000
              CHANNELS 6 Xposition Yposition Zposition Zrotation Xrotation Yrotation
                JOINT RightHandIndex3
                {
                OFFSET -2.130 0.000 0.000
                CHANNELS 6 Xposition Yposition Zposition Zrotation Xrotation Yrotation
                  JOINT RightHandIndex4
                  {
                  OFFSET -1.800 0.000 0.000
                  CHANNELS 6 Xposition Yposition Zposition Zrotation Xrotation Yrotation
                  }
                }
              }
            }
            JOINT RightHandMiddle1
            {
            OFFSET -9.220 0.670 0.550
            CHANNELS 6 Xposition Yposition Zposition Zrotation Xrotation Yrotation
              JOINT RightHandMiddle2
              {
              OFFSET -2.660 0.000 0.000
              CHANNELS 6 Xposition Yposition Zposition Zrotation Xrotation Yrotation
                JOINT RightHandMiddle3
                {
                OFFSET -2.280 0.000 0.000
                CHANNELS 6 Xposition Yposition Zposition Zrotation Xrotation Yrotation
                  JOINT RightHandMiddle4
                  {
                  OFFSET -1.500 0.000 0.000
                  CHANNELS 6 Xposition Yposition Zposition Zrotation Xrotation Yrotation
                  }
                }
              }
            }
            JOINT RightHandRing1
            {
            OFFSET -9.250 0.670 -1.130
            CHANNELS 6 Xposition Yposition Zposition Zrotation Xrotation Yrotation
              JOINT RightHandRing2
              {
              OFFSET -2.470 0.000 0.000
              CHANNELS 6 Xposition Yposition Zposition Zrotation Xrotation Yrotation
                JOINT RightHandRing3
                {
                OFFSET -2.210 0.000 0.000
                CHANNELS 6 Xposition Yposition Zposition Zrotation Xrotation Yrotation
                  JOINT RightHandRing4
                  {
                  OFFSET -1.800 0.000 0.000
                  CHANNELS 6 Xposition Yposition Zposition Zrotation Xrotation Yrotation
                  }
                }
              }
            }
            JOINT RightHandPinky1
            {
            OFFSET -9.350 0.660 -2.720
            CHANNELS 6 Xposition Yposition Zposition Zrotation Xrotation Yrotation
              JOINT RightHandPinky2
              {
              OFFSET -1.630 0.000 0.000
              CHANNELS 6 Xposition Yposition Zposition Zrotation Xrotation Yrotation
                JOINT RightHandPinky3
                {
                OFFSET -1.710 0.000 0.000
                CHANNELS 6 Xposition Yposition Zposition Zrotation Xrotation Yrotation
                  JOINT RightHandPinky4
                  {
                  OFFSET -1.800 0.000 0.000
                  CHANNELS 6 Xposition Yposition Zposition Zrotation Xrotation Yrotation
                  }
                }
              }
            }
          }
        }
      }
    }
    JOINT Neck
    {
      OFFSET -0.000 37.329 0.000
      CHANNELS 6 Xposition Yposition Zposition Zrotation Xrotation Yrotation
      JOINT Head
      {
        OFFSET -0.000 17.877 -0.000
        CHANNELS 6 Xposition Yposition Zposition Zrotation Xrotation Yrotation
        End Site
        {
          OFFSET -0.000 0.072 -0.000
        }
      }
    }
  }
}
MOTION
Frames:	4
Frame Time:	0.0333333
18.2854 22.4165 -267.283 3.31095 10.5094 -17.406 8.09303 -7.13395 2.32227 4.83983 -17.7904 0.881813 1.19209e-05 -49.2309 0 -5.73758 -3.69506 -0.370999 -1.19209e-05 -38.1157 -2.38419e-05 7.3985 -8.99337 5.39059 -7.58176 -7.90605 2.39828 -0.375347 -0.577108 0.245791 0 -51.4922 -7.15256e-05 5.9145 12.1589 -1.24998 1.78814e-05 -41.8648 -4.76837e-05 -15.3325 -22.9205 -14.2292 0 5.84891 -5.84881 1.68738 -9.29079 -1.52611 1.78814e-05 37.3279 -7.15256e-05 -38.4426 1.10991e-05 -1.09899 22.0004 -1.19209e-05 0 -36.7616 19.8624 -0.0798807 28.8694 -1.19209e-05 4.76837e-05 -2.81726e-06 -5.12264e-06 -20.4117 26.6292 -2.38419e-05 -2.38419e-05 -6.03351 -0.0433907 8.84142 0.0062 0.0497 0.0339 -1.61149e-43 0 0 0 0.0215 0 0 -1.61149e-43 0 0 0.022 0 0 -1.61149e-43 0 0 0.017 0 0 0 0 -0.0068 0.0873 0.0207 -1.61149e-43 0 0 0 0.0267 0 -3.20897e-43 0 0 0 0.0213 0 -4.00771e-43 0 0 0 0.018 0 0 0 0 -0.0067 0.0922 0.0055 -1.61149e-43 0 0 0 0.0266 0 -3.20897e-43 0 0 0 0.0228 0 -4.00771e-43 0 0 0 0.015 0 0 0 0 -0.0067 0.0925 -0.0113 -1.61149e-43 0 0 0 0.0247 0 -3.20897e-43 0 0 0 0.0221 0 -4.00771e-43 0 0 0 0.018 0 0 0 0 -0.0066 0.0935 -0.0272 -1.61149e-43 0 0 0 0.0163 0 -3.20897e-43 0 0 0 0.0171 0 -4.00771e-43 0 0 0 0.018 0 0 0 0 1.78814e-05 37.3279 -7.15256e-05 31.7825 -5.97641e-06 1.14524 -21.1118 0 2.38419e-05 46.3898 -0.643817 -1.67557 -29.5977 -2.38419e-05 2.38419e-05 6.91093 2.17977 17.4219 -24.3015 2.38419e-05 -2.38419e-05 7.90304 -0.0229625 -0.42003 -0.0062 0.0497 0.0339 1.61149e-43 0 0 0 0.0215 0 0 -1.61149e-43 0 0 0.022 0 0 -1.61149e-43 0 0 0.017 0 0 0 0 0.0068 0.0873 0.0207 1.61149e-43 0 0 0 0.0267 0 3.20897e-43 0 0 0 0.0213 0 4.00771e-43 0 0 0 0.018 0 0 0 0 0.0067 0.0922 0.0055 1.61149e-43 0 0 0 0.0266 0 3.20897e-43 0 0 0 0.0228 0 4.00771e-43 0 0 0 0.015 0 0 0 0 0.0067 0.0925 -0.0113 1.61149e-43 0 0 0 0.0247 0 3.20897e-43 0 0 0 0.0221 0 4.00771e-43 0 0 0 0.018 0 0 0 0 0.0066 0.0935 -0.0272 1.61149e-43 0 0 0 0.0163 0 3.20897e-43 0 0 0 0.0171 0 4.00771e-43 0 0 0 0.018 0 0 0 0 1.78814e-05 37.3279 -7.15256e-05 -5.37889 13.7656 1.28346 0 18.031 7.15256e-05 8.53774e-06 -1.36604e-05 3.41509e-06 
18.2419 22.5472 -266.014 3.20485 9.94727 -17.6514 8.10538 -7.18799 2.30424 4.46937 -15.7411 0.576261 1.19209e-05 -49.2859 4.76837e-05 -5.62716 -5.21864 -0.513469 0 -38.0995 -2.38419e-05 7.38675 -8.52492 5.33229 -7.59268 -7.88643 2.31981 -0.484641 -3.81533 -0.951468 -5.96046e-06 -50.2603 0 5.24098 20.0112 3.63453e-06 1.19209e-05 -42.9139 7.15256e-05 -15.3916 -23.6469 -14.436 0 5.87161 -5.87163 1.65119 -8.81664 -1.58552 -5.96046e-06 37.3279 2.38419e-05 -38.3429 8.53774e-06 -1.25221 22.0212 -1.49012e-06 2.38419e-05 -35.6777 22.1731 -1.31594 28.6668 0 0 1.21451e-05 -1.70755e-06 -20.9491 26.5872 -1.19209e-05 0 -6.87873 -0.0535581 7.55972 0.0062 0.0497 0.0339 -1.61149e-43 0 0 0 0.0215 0 0 -1.61149e-43 0 0 0.022 0 0 -1.61149e-43 0 0 0.017 0 0 0 0 -0.0068 0.0873 0.0207 -1.61149e-43 0 0 0 0.0267 0 -3.20897e-43 0 0 0 0.0213 0 -4.00771e-43 0 0 0 0.018 0 0 0 0 -0.0067 0.0922 0.0055 -1.61149e-43 0 0 0 0.0266 0 -3.20897e-43 0 0 0 0.0228 0 -4.00771e-43 0 0 0 0.015 0 0 0 0 -0.0067 0.0925 -0.0113 -1.61149e-43 0 0 0 0.0247 0 -3.20897e-43 0 0 0 0.0221 0 -4.00771e-43 0 0 0 0.018 0 0 0 0 -0.0066 0.0935 -0.0272 -1.61149e-43 0 0 0 0.0163 0 -3.20897e-43 0 0 0 0.0171 0 -4.00771e-43 0 0 0 0.018 0 0 0 0 -5.96046e-06 37.3279 2.38419e-05 31.78 -6.83019e-06 1.30673 -21.1022 -5.96046e-06 -2.38419e-05 47.4463 19.8773 -2.37163 -29.7085 1.75089e-05 -4.76837e-05 -2.11918e-06 1.28066e-06 20.1753 -24.3721 -1.49012e-06 2.38419e-05 7.72964 -0.0170364 -0.284338 -0.0062 0.0497 0.0339 1.61149e-43 0 0 0 0.0215 0 0 -1.61149e-43 0 0 0.022 0 0 -1.61149e-43 0 0 0.017 0 0 0 0 0.0068 0.0873 0.0207 1.61149e-43 0 0 0 0.0267 0 3.20897e-43 0 0 0 0.0213 0 4.00771e-43 0 0 0 0.018 0 0 0 0 0.0067 0.0922 0.0055 1.61149e-43 0 0 0 0.0266 0 3.20897e-43 0 0 0 0.0228 0 4.00771e-43 0 0 0 0.015 0 0 0 0 0.0067 0.0925 -0.0113 1.61149e-43 0 0 0 0.0247 0 3.20897e-43 0 0 0 0.0221 0 4.00771e-43 0 0 0 0.018 0 0 0 0 0.0066 0.0935 -0.0272 1.61149e-43 0 0 0 0.0163 0 3.20897e-43 0 0 0 0.0171 0 4.00771e-43 0 0 0 0.018 0 0 0 0 -5.96046e-06 37.3279 2.38419e-05 -5.11988 13.6369 1.21015 2.98023e-05 18.0234 9.53674e-05 1.28066e-05 -7.68396e-06 -3.41509e-06 
18.2144 22.6753 -264.749 3.05108 9.4389 -17.9297 8.11926 -7.25192 2.28269 4.15972 -13.7598 0.290808 -1.19209e-05 -49.3294 -4.76837e-05 -5.45546 -6.65837 -0.634459 -1.78814e-05 -38.08 -4.76837e-05 7.41826 -8.15416 5.31322 -7.60716 -7.86109 2.23432 -0.155974 -7.69284 -1.31932 1.78814e-05 -49.0435 -7.15256e-05 3.96038 26.8655 -5.74242e-06 -5.96046e-06 -43.8303 0 -15.3552 -22.4272 -14.2076 5.96046e-06 5.88427 -5.88427 1.58925 -8.25025 -1.60415 1.19209e-05 37.3279 -2.38419e-05 -38.2401 1.28066e-05 -1.06876 21.9949 -1.71363e-05 2.38419e-05 -34.0236 24.5658 -3.09329 28.35 -1.19209e-05 -2.38419e-05 0 0 -21.8693 26.6849 0 1.19209e-05 -7.61026 -0.0449095 6.51478 0.0062 0.0497 0.0339 -1.61149e-43 0 0 0 0.0215 0 0 -1.61149e-43 0 0 0.022 0 0 -1.61149e-43 0 0 0.017 0 0 0 0 -0.0068 0.0873 0.0207 -1.61149e-43 0 0 0 0.0267 0 -3.20897e-43 0 0 0 0.0213 0 -4.00771e-43 0 0 0 0.018 0 0 0 0 -0.0067 0.0922 0.0055 -1.61149e-43 0 0 0 0.0266 0 -3.20897e-43 0 0 0 0.0228 0 -4.00771e-43 0 0 0 0.015 0 0 0 0 -0.0067 0.0925 -0.0113 -1.61149e-43 0 0 0 0.0247 0 -3.20897e-43 0 0 0 0.0221 0 -4.00771e-43 0 0 0 0.018 0 0 0 0 -0.0066 0.0935 -0.0272 -1.61149e-43 0 0 0 0.0163 0 -3.20897e-43 0 0 0 0.0171 0 -4.00771e-43 0 0 0 0.018 0 0 0 0 1.19209e-05 37.3279 -2.38419e-05 31.8001 0 1.11222 -21.1355 0 -7.15256e-05 47.6066 18.6611 -2.08015 -29.6905 1.41561e-05 0 -2.04602e-06 8.53774e-07 21.1247 -24.4402 1.86265e-06 2.38419e-05 7.64863 0.00516901 0.404637 -0.0062 0.0497 0.0339 1.61149e-43 0 0 0 0.0215 0 0 -1.61149e-43 0 0 0.022 0 0 -1.61149e-43 0 0 0.017 0 0 0 0 0.0068 0.0873 0.0207 1.61149e-43 0 0 0 0.0267 0 3.20897e-43 0 0 0 0.0213 0 4.00771e-43 0 0 0 0.018 0 0 0 0 0.0067 0.0922 0.0055 1.61149e-43 0 0 0 0.0266 0 3.20897e-43 0 0 0 0.0228 0 4.00771e-43 0 0 0 0.015 0 0 0 0 0.0067 0.0925 -0.0113 1.61149e-43 0 0 0 0.0247 0 3.20897e-43 0 0 0 0.0221 0 4.00771e-43 0 0 0 0.018 0 0 0 0 0.0066 0.0935 -0.0272 1.61149e-43 0 0 0 0.0163 0 3.20897e-43 0 0 0 0.0171 0 4.00771e-43 0 0 0 0.018 0 0 0 0 1.19209e-05 37.3279 -2.38419e-05 -4.65358 13.0945 1.05652 -1.78814e-05 17.9541 -4.76837e-05 8.11085e-06 -9.39151e-06 0 
18.1997 22.8009 -263.496 2.88613 8.99793 -18.3005 8.11622 -7.30742 2.23629 3.91119 -11.8702 0.152171 -5.96046e-06 -49.4009 2.38419e-05 -5.2707 -8.04718 -0.739888 0 -38.0465 -4.76837e-05 7.52141 -7.81815 5.34511 -7.60818 -7.81396 2.15974 0.10916 -10.9479 -1.34968 -1.78814e-05 -48.1023 0 2.84396 32.0264 0 1.19209e-05 -44.4642 0 -14.907 -20.3529 -13.4786 -5.96046e-06 5.89574 -5.89578 1.53414 -7.72177 -1.57955 1.78814e-05 37.3279 2.38419e-05 -38.1987 1.19528e-05 -0.829716 21.913 0 -4.76837e-05 -32.1203 26.3414 -4.86748 28.0318 -1.19209e-05 0 7.28708e-07 1.70755e-06 -23.1107 27.0074 3.57628e-05 -1.19209e-05 -7.96121 -0.000124822 4.68371 0.0062 0.0497 0.0339 -1.61149e-43 0 0 0 0.0215 0 0 -1.61149e-43 0 0 0.022 0 0 -1.61149e-43 0 0 0.017 0 0 0 0 -0.0068 0.0873 0.0207 -1.61149e-43 0 0 0 0.0267 0 -3.20897e-43 0 0 0 0.0213 0 -4.00771e-43 0 0 0 0.018 0 0 0 0 -0.0067 0.0922 0.0055 -1.61149e-43 0 0 0 0.0266 0 -3.20897e-43 0 0 0 0.0228 0 -4.00771e-43 0 0 0 0.015 0 0 0 0 -0.0067 0.0925 -0.0113 -1.61149e-43 0 0 0 0.0247 0 -3.20897e-43 0 0 0 0.0221 0 -4.00771e-43 0 0 0 0.018 0 0 0 0 -0.0066 0.0935 -0.0272 -1.61149e-43 0 0 0 0.0163 0 -3.20897e-43 0 0 0 0.0171 0 -4.00771e-43 0 0 0 0.018 0 0 0 0 1.78814e-05 37.3279 2.38419e-05 31.8533 -3.41509e-06 0.858628 -21.175 2.38419e-05 2.38419e-05 47.7722 17.6512 -1.1466 -29.6532 -5.96046e-06 2.38419e-05 -8.17313e-08 -1.28066e-06 20.9194 -24.4296 2.23517e-06 -2.38419e-05 7.58108 0.0313176 1.29687 -0.0062 0.0497 0.0339 1.61149e-43 0 0 0 0.0215 0 0 -1.61149e-43 0 0 0.022 0 0 -1.61149e-43 0 0 0.017 0 0 0 0 0.0068 0.0873 0.0207 1.61149e-43 0 0 0 0.0267 0 3.20897e-43 0 0 0 0.0213 0 4.00771e-43 0 0 0 0.018 0 0 0 0 0.0067 0.0922 0.0055 1.61149e-43 0 0 0 0.0266 0 3.20897e-43 0 0 0 0.0228 0 4.00771e-43 0 0 0 0.015 0 0 0 0 0.0067 0.0925 -0.0113 1.61149e-43 0 0 0 0.0247 0 3.20897e-43 0 0 0 0.0221 0 4.00771e-43 0 0 0 0.018 0 0 0 0 0.0066 0.0935 -0.0272 1.61149e-43 0 0 0 0.0163 0 3.20897e-43 0 0 0 0.0171 0 4.00771e-43 0 0 0 0.018 0 0 0 0 1.78814e-05 37.3279 2.38419e-05 -4.0845 12.4529 0.882205 -5.96046e-06 17.9228 -4.76837e-05 9.8184e-06 -9.39151e-06 -3.41509e-06 
